<svg xmlns="http://www.w3.org/2000/svg" viewBox="0 0 24366.56 24337.8">
  <defs>
    <radialGradient id="ember" cx="50%" cy="46%" r="58%">
      <stop offset="0%" stop-color="#e2733a" stop-opacity="0.5"/>
      <stop offset="100%" stop-color="#e2733a" stop-opacity="0"/>
    </radialGradient>
  </defs>
  <rect width="24366.56" height="24337.8" rx="5300" fill="#171310"/>
  <rect width="24366.56" height="24337.8" rx="5300" fill="url(#ember)"/>
  <path transform="translate(2680.3 2677.2) scale(0.78)" fill="#e0a93c" fill-rule="evenodd" d="M12298.06 12305.81c118.84,7.46 241.25,70.87 357.83,98.34 211.33,49.73 433.96,47.33 649.86,45.67 -66.91,38.6 -133.26,72.56 -204.06,103.44 -9.66,3.16 -19.38,6.16 -29.15,9.02 -300.86,87.33 -653.4,-3.76 -919.79,-151.08 0,0 145.3,-105.38 145.3,-105.38zm1411.09 3273.55c4.47,1.77 9.08,3.25 13.42,5.32 29.87,14.1 39.02,29.71 48.57,61.1 30.88,101.62 15.77,242.71 26.17,350.46 12.91,133.52 68.23,268.68 117.89,391.96 0,0 -15,22.81 -15,22.81 0,0 19.23,-13.97 19.23,-13.97 0,0 -12.54,17.38 -12.54,17.38 0,0 10.37,4.87 10.37,4.87 0,0 12.04,-3.36 12.04,-3.36 0,0 2.33,6.64 2.33,6.64 -34.71,4.37 -69.52,-6.13 -103.39,-13.09 -74.05,-20.83 -126.19,-47.23 -175.56,-107.28 -89.26,-108.58 -135.56,-259.4 -121.06,-399.54 13.41,-129.42 78.23,-241.14 177.54,-323.31zm-397.57 -3466.59c167.67,-4.13 318.45,-22.52 478.1,-75.53 0,0 -138.92,137.91 -138.92,137.91 -231.41,198.85 -443.96,198.82 -733.54,176.12 -143.08,-11.22 -282.57,-32.36 -420.97,-70.53 -35.05,-7.51 -64.86,-10.79 -91.48,-37.02 10.93,-47.06 65.63,-83.36 100.69,-116.83 9.95,-11.9 16.78,-20.92 28.79,-31.35 46.19,-40.03 661.04,15.29 777.32,17.23zm901.5 -582.53c-17.22,72.25 -112.49,165.19 -166.93,214.72 -365.54,332.57 -968.81,280.87 -1428.32,265.1 0,0 -3.52,-4.63 -3.52,-4.63 -4.97,-54.83 153.12,-244.42 192.68,-300 462.25,-31.17 979.17,35.45 1406.09,-175.19zm2818.21 -5423.2c0,0 2.46,1.54 2.46,1.54 0,0 0.9,20 0.9,20 -52.66,84.64 -110.13,165.88 -172.38,243.74 -62.24,77.87 -128.84,151.81 -199.79,221.83 -354.59,352.07 -596.82,382.08 -1058.23,510.28 -170.37,47.36 -333.71,111.12 -497.29,177.52 -6.27,-3.81 -1.79,-0.56 -8.3,-14.37 85.34,-81.51 187.88,-147.28 283.15,-216.88 515.15,-376.44 1074.81,-670.02 1649.48,-943.65zm-4724.92 9632.79c394.32,54.39 775.57,69.42 1169.92,7.07 0,0 -122.23,283.05 -122.23,283.05 -86.25,67 -180.32,119.97 -274.53,174.65 -249.18,143.85 -508.06,269.05 -749.59,426.1 12.67,-161.69 19.63,-319.9 7.46,-482.13 -9.79,-130.48 -43.76,-279.34 -31.03,-408.74zm2232.82 -4858.29c11.54,86.85 -106.77,282.65 -160.29,350.61 -289.77,367.87 -1069.33,350.83 -1508.24,398.06 -4.84,-66.8 166.4,-327.18 208.16,-399.8 265.85,-113.53 535.04,-106.2 814.25,-156.43 224.19,-40.38 433.32,-113.97 646.12,-192.44zm1733.27 -3860.49c0.16,12.33 -4.29,23.89 -9.05,35.19 -24.74,58.73 -65.66,116.06 -98.47,170.82 -272.15,454.43 -690.1,529.94 -1161.03,681.76 -244.56,78.87 -484.03,168.6 -723.94,260.62 0,0 0.59,-20.85 0.59,-20.85 80.9,-133.21 202.75,-251.3 317.89,-354.82 350.56,-315.22 766.42,-484.83 1210.19,-623.04 149.28,-46.48 303.68,-86.82 449.16,-143.81 0,0 14.66,-5.88 14.66,-5.88zm-1432.49 3078.09c6.8,6.56 7.01,5.08 9.5,15.59 18.6,78.44 -50.05,342.92 -84.42,412.94 -196.7,400.7 -1218.61,485.62 -1631.09,630.79 0,0 -13.13,-19.87 -13.13,-19.87 40.32,-150.45 112.65,-306.54 178.97,-447.41 318.58,-202.12 707.11,-210.88 1055.84,-331.44 178.13,-61.56 328.03,-158.02 484.33,-260.59zm96.22 -650.91c0,0 22.96,2.89 22.96,2.89 31.96,70.44 -14.95,248.67 -38.18,322.94 -26.51,84.74 -68.86,174.13 -137.46,233 -228.98,196.49 -815.98,349.95 -1114.45,460.72 -110.88,41.15 -215.67,92.57 -320.67,146.55 0,0 -9.87,5.79 -9.87,5.79 -16.12,-36.41 90.34,-396.33 106.54,-460.8 305.43,-318.13 1069.2,-515.84 1491.12,-711.08zm-4828.29 -1272.78c145.72,121.49 296.01,241.47 424.4,381.49 -27.46,500.52 -262.94,979.55 -522.23,1399.37 -18.45,33.18 -37.21,64.84 -58.86,95.99 -104.32,-58.97 -208.26,-177.55 -295.91,-260.85 100.03,-296.76 180.45,-603.83 266.7,-904.95 66.55,-232.44 150.81,-471.81 185.9,-711.05zm5566.59 -365.3c0,0 16.43,4.82 16.43,4.82 0.21,4.13 0.87,8.26 0.69,12.38 -3.1,72.28 -59.52,172.84 -92.01,236.73 -370.33,728.09 -1348.02,620.44 -1934.68,1139.36 0,0 -8.22,3.89 -8.22,3.89 0,0 -8.13,-13.7 -8.13,-13.7 28.34,-101.54 59.79,-199.93 103.87,-295.91 78.44,-170.85 190.19,-330.73 338.03,-448.68 336.09,-268.1 1155.26,-482.02 1584.03,-638.89zm-6199.75 -55.15c165.27,123.84 341.42,232.55 507.34,355.88 -102.65,544.9 -217.44,1107.54 -373.42,1638.92 -172.94,-115.11 -332.15,-256.46 -503.9,-375.64 106.22,-543.79 270.3,-1075.37 369.98,-1619.17zm6049.22 650.65c25.22,47.7 -18.97,178.89 -32.52,231.14 -40.95,157.99 -92.14,312 -201.91,436.74 -262.49,298.34 -978.56,507.92 -1342.88,663.13 -161.06,68.62 -312.39,151.59 -463.24,239.77 0,0 -8.09,-5.39 -8.09,-5.39 -3.07,-11.46 -5.24,-17.02 -4.69,-30.11 2.2,-53.63 20.72,-115.93 30.09,-169.16 19.07,-108.36 33.81,-212.02 88.54,-310.11 318.82,-571.58 1427.4,-569.35 1934.7,-1056zm-8035.3 -4120.47c42.94,28.39 71.59,75.34 98.6,118.42 128.16,204.5 298.69,613.9 291.94,855.12 -5.74,206.49 -399.19,1058.2 -496.44,1327.39 -73.28,202.89 -121.44,409.69 -170.06,619.44 0,0 -3.41,17.96 -3.41,17.96 -17.17,87.17 -22.38,170.11 -25.4,258.81 -354.02,-1184.58 -80.11,-2080.87 304.77,-3197.14zm3159.02 4354.81c124.61,114.56 235.38,275.85 344.45,406.44 -102.67,521.9 -418.82,942.56 -751.38,1341.51 361.09,-189.02 732.27,-860.39 873.61,-1230.22 107.78,117.63 201.15,249.58 297.28,376.7 -69.89,356.73 -295.13,678.22 -568.52,911.51 -53.76,45.85 -169.27,119 -199.48,178.86 75.08,-28.12 147.39,-90.63 211.06,-138.58 292.84,-236.04 497.42,-478.07 673.22,-809.49 134.56,161.56 264.29,333.59 387.57,503.9 -141.7,235.99 -341.38,457.42 -536.2,650.49 -235.12,-19.63 -470.73,-51.29 -705.47,-76.37 -212.5,-157.41 -512.42,-464.48 -698.51,-662.16 245.59,-295.22 659.38,-1053.78 672.37,-1452.6zm-872.27 -7421.21c76.35,246.5 107.54,759.73 48.29,1004.95 -139.56,577.31 -681.29,1332.86 -994.16,1854.41 -283.65,472.84 -539.38,937.22 -763.58,1441.24 -21.72,-68.8 -35.64,-134.16 -46.2,-205.45 -51,-268.6 -137.2,-557.34 -264.92,-799.52 285.9,-751.39 826.53,-1655.59 1296.09,-2311.91 236.75,-330.91 496.02,-647.18 724.49,-983.73zm3117.66 15730.49c0,0 20.96,4.79 20.96,4.79 18.65,92.99 -39.82,308.89 -57.78,410.88 -153.57,871.82 -365.77,1648.58 -718.8,2462.91 -60.61,139.85 -115.32,297.82 -196.2,426.95 -73.01,116.54 -184.68,208.55 -279.84,307.2 -127.65,132.39 -253.95,267.68 -372.73,408.06 -545.06,644.16 -861.21,1204.68 -1211.97,1962.98 0,0 -9.31,-0.69 -9.31,-0.69 67.72,-371.09 186.91,-740.59 308.08,-1097.54 519.3,-1529.5 1355.53,-2921.31 1788.8,-4482.94 247.54,-114.26 488.58,-271.86 728.8,-402.6zm-4926.86 -11442.39c15.43,20.66 227.97,664.43 269.69,769.83 -202.1,506.6 -367.31,1265.77 -306.71,1808.3 15.14,135.46 55.82,248.31 87.07,378.71 0,0 -8.44,2.67 -8.44,2.67 0,0 23.89,-12.88 23.89,-12.88 -2.49,-59.18 -30.77,-117.84 -41.67,-176.56 -14.45,-77.7 -14.95,-160.88 -16.59,-239.67 -11.54,-562.58 195.51,-1061.56 341.41,-1592.71 119.24,170.9 225.83,347.91 352.55,513.93 -17.01,569.9 -210.8,1327.73 -142.5,1860.86 0,0 18.71,-0.53 18.71,-0.53 0,0 -10.95,23.34 -10.95,23.34 14.42,-327.37 64.99,-634.41 125.66,-954.99 48.9,-254.4 107.04,-510.42 140.72,-767.22 166.62,206.2 355.27,366.12 559.27,533.25 -25.03,211.09 -73.51,421.99 -111.06,631.34 -63.84,357.83 -122.5,716.53 -175.95,1076.06 -604.73,-351.57 -1332.65,-713.38 -1626.79,-1386.36 -277.47,-634.81 6.9,-1334.92 275.77,-1922.46 79.52,-173.81 170.08,-344.88 237.92,-523.56 0,0 7.99,-21.35 7.99,-21.35zm14383.38 -920c0,0 14.21,9.1 14.21,9.1 0.55,17.86 -1.32,31.81 -7.7,48.61 -146.46,386.01 -606.42,669.11 -959.65,835.39 -248.73,117.1 -515.46,186.22 -778.91,261.56 -425.57,121.73 -854.88,229.93 -1280.87,350.14 -758.27,213.95 -1531.12,458.08 -2260.16,755.6 -247.2,100.9 -488.74,217.78 -731.48,328.92 0,0 -12.65,-14.79 -12.65,-14.79 22.18,-84.28 67.01,-166.16 103.82,-245.22 302.17,-188.1 617.55,-543.55 738.04,-881.34 250.74,-136.07 547.09,-224.77 815.52,-321.94 1418.79,-513.69 2890.28,-802.32 4359.84,-1126.04zm-8004.56 11733.03c85.77,53.06 986.11,1976.08 1077.46,2197.62 -420.54,-109.05 -797.95,-38.02 -1195.48,113.68 -18.73,-390.64 -41.06,-778.88 -69.62,-1168.97 -9.26,-126.75 -0.43,-287.12 -39.98,-405.8 0,0 -5.21,36.72 -5.21,36.72 0,0 7.22,3.2 7.22,3.2 0,0 -8.42,6.3 -8.42,6.3 -6.48,538.17 12.36,1082.59 -45,1618.72 -242.45,136.44 -477.47,283.63 -717.93,423.08 103.89,-508.4 139.35,-1037.56 160.4,-1555 12.43,-284.03 -0.37,-564.01 -14.74,-847.53 -30.56,184.31 -19.9,378.84 -28.63,565.48 -12.52,249.74 -36.56,498.37 -72.09,745.89 -26.25,207.24 -64.31,412.28 -114.21,615.12 -50.97,200.69 -117.7,402.79 -152.3,606.84 0,0 -2.67,16.67 -2.67,16.67 -151.11,122.97 -309.16,238.11 -461.01,360.4 -112.79,90.8 -217.76,191.41 -336.1,275.03 40.93,-136.54 95.42,-269.15 138.23,-405.24 96.99,-308.21 182.28,-625.15 255.14,-939.81 129.42,-559.11 188.31,-1122.49 255.69,-1690.81 250.16,-135.98 527.55,-270 739.86,-461.51 98.42,37.04 305.43,111.16 393.18,30.21 34.85,-32.12 64.84,-84.89 103.87,-110.32 31.38,-20.4 95.29,-24 132.33,-29.95zm-6882.7 3751.97c76.88,-1.8 458.05,231.7 554.3,278.86 231.94,113.66 476.04,220.67 715.36,317.76 325.6,132.1 662.9,250.24 1003.76,336.26 192.3,48.52 390.88,75.85 580.91,131.88 0,0 16.78,5.11 16.78,5.11 -208.5,484.91 -360.09,1015.8 -461.02,1533.79 -291.78,-42.76 -592.74,-131.65 -873.72,-220.91 -223.48,-69.42 -444.72,-145.37 -663.74,-227.84 -219,-82.45 -435.39,-171.29 -649.14,-266.51 -213.78,-95.22 -424.57,-196.66 -632.35,-304.32 -207.8,-107.64 -412.24,-221.31 -613.32,-341.02 -180.48,-107.35 -370.64,-212.07 -532.77,-345.98 526.52,-280.14 1039.76,-596.34 1554.95,-897.08zm14240.16 -14529.11c97.48,151.2 191.46,304.55 281.94,460.04 90.49,155.47 177.4,312.93 260.71,472.39 83.3,159.43 162.93,320.7 238.9,483.76 75.96,163.07 148.17,327.8 216.65,494.17 68.45,166.35 133.08,334.19 193.89,503.5 60.81,169.32 117.74,339.93 170.77,511.82 53.03,171.9 102.13,344.94 147.28,519.09 45.14,174.13 86.29,349.2 123.48,525.22 44.82,217.39 93.2,438.7 117.57,659.41 -395.81,83.83 -789.12,191.01 -1182.52,286.17 -108.36,23.55 -215.85,54.78 -323.18,82.83 -168.26,-1385.01 -682.35,-2650.12 -1360.48,-3857.47 449.66,-222.68 886.87,-692.69 1115,-1140.93zm2647.15 4706.04c5.5,4.36 5.29,13.02 7.36,19.74 -152.83,216.7 -365.22,411.49 -548.03,604.51 -413.87,441.02 -837.7,872.25 -1271.46,1293.71 -221.17,214.34 -467.89,423.87 -659.93,664.59 100.98,-411.81 165.69,-837.14 257.41,-1252.2 -291.17,182.31 -600.49,338.19 -900.79,505.07 -139.64,77.59 -297.97,151.69 -419.93,255.87 -213.53,182.44 -554.96,658.72 -732.67,896.27 -26.99,-66.88 -46.14,-136.23 -66.61,-205.27 -129.58,-15.45 -263.15,-12.57 -393.61,-15.45 -543.53,343.47 -1113.04,645.64 -1672.15,962.61 0,0 -3427.99,1925.99 -3427.99,1925.99 -20.59,103.66 -42.65,195.03 -97.62,287.31 -29.77,-147.26 -57.99,-294.11 -100.88,-438.24 9.87,153.67 59.84,305.77 60.13,458.73 -13.81,26.94 -18.23,41.84 -50.79,49.9 -45.46,11.21 -116.57,-7.92 -154.52,-33.55 -51.32,-34.69 -67.14,-195.43 -80.03,-259.03 -9.42,-41.17 -10,-118.6 -33.18,-150.74 -12.57,137.13 63.31,315.99 39.21,434.2 -6.74,33.07 -22.75,50.55 -50.02,67.93 -29.05,18.5 -16.14,6.33 -36.43,32.23 18.97,28.94 18.25,35.48 50.84,45.14 0,0 43.68,-36.2 43.68,-36.2 11.54,26.67 7.97,24.63 1.75,50.98 -32.44,23.84 -60.05,19.31 -98.07,17.72 -38.6,-24.76 -4.47,-37.94 -14.77,-71.85 -13.22,-43.52 -98.52,-123.49 -127.73,-168.28 -72.03,-110.43 -104.89,-521.26 -73.06,-653.98 9.31,-38.79 39.18,-56.05 71.98,-74.65 81.77,-46.44 275.11,-129.35 366.88,-115.46 32.49,4.92 67.7,29.61 91.25,50.79 39.08,35.19 75.45,84.24 127.07,99.26 281.88,-87.4 734.44,-423.1 1015.55,-579.51 0,0 2781.37,-1561.49 2781.37,-1561.49 217.29,-124.75 435.47,-247.91 654.53,-369.5 140.59,-77.65 287.71,-150.21 422.85,-236.73 94.23,-60.31 175.53,-159.36 253.75,-238.95 -41.77,-86.22 -84.28,-171.64 -118.12,-261.35 235.19,-49.68 472.34,-92.39 708.43,-137.81 124.03,-23.87 257.78,-39.67 377.31,-80.45 175.48,-59.87 341.65,-169.26 503.5,-259.56 0,0 784.31,-438.45 784.31,-438.45 -353.74,-55.95 -703.09,-133.84 -1058.04,-183.44 474.56,-116.22 940.15,-263.26 1412.34,-387.07 715.38,-183.43 1433.69,-354.54 2154.94,-513.35zm-14629.34 -7245.55c57.24,124.85 77.64,283.55 86.48,419.86 63.22,974.65 -662.55,1779.16 -1088.31,2589.85 -33.55,63.88 -108.89,173.89 -110,244.13 52.8,-52.13 94.18,-153.04 136.12,-218.6 115.5,-180.48 232.04,-361.35 362.25,-531.74 236.92,-309.93 519.2,-579.82 772.03,-876.23 7.34,14.81 14.26,29.82 20.77,45.03 242.84,569.16 58.36,1217.92 -229.3,1733.42 -128.23,229.83 -296.41,464.9 -388.92,710.39 -1.77,4.66 -3.39,9.37 -5.08,14.05 344.11,-546.52 732.24,-1024.92 1189.18,-1480.56 34.45,78.78 63.68,157.46 86.38,240.48 205.93,753.3 -177.91,1257.6 -530.73,1869.12 16.56,-2.57 7.09,0.9 23.97,-18.81 325.3,-380.06 592.37,-714.52 973.96,-1048.99 31.01,85.26 58.17,174.68 76.09,263.63 94.87,470.67 -53.92,871.84 -309.99,1259.39 171.57,-166.72 278.87,-337.98 494.86,-458.71 151.5,-81.85 311.36,-160.16 472.44,-221.12 2.17,36.81 4.1,73.63 5.79,110.48 22.97,510.7 -161.77,778.75 -494.29,1142.99 313.79,-213.13 592.42,-485.44 931.93,-661.16 0,0 4.89,17.86 4.89,17.86 99.42,375.88 -4.84,718.3 -266.67,998.55 -64.78,69.31 -168.7,144.05 -215.24,224.32 66.77,-25.38 135.08,-91.62 199.74,-128.87 194.18,-111.94 415.41,-180.45 634.46,-222.18 -114.63,387.42 -341.6,761.37 -580.04,1085.42 -256.61,-248.96 -459.5,-575.35 -672.95,-861.81 -223.67,-297.91 -464.63,-581.11 -722.87,-849.59 -238.74,-249 -555.52,-429.25 -844.65,-614.1 -578.72,-370.03 -1072.27,-851.73 -1362.76,-1483.71 -103.86,-226.01 -177.75,-460.32 -264.05,-692.93 391.02,-942.02 984.9,-1802.61 1614.52,-2599.85zm5815.9 12398.07c117.02,89.02 219.48,225.93 320.62,334.27 0,0 704.09,758.43 704.09,758.43 454.4,503.93 892.38,1021.75 1313.93,1553.44 478.74,591.71 957.87,1189.8 1379.05,1824.47 166.08,250.29 313.02,513.77 458.45,776.42 396.64,716.32 739.75,1451.35 984.97,2233.81 82.14,262.11 175.21,528.74 226.04,798.77 -368.11,-870.36 -1165.4,-1931.73 -1776.77,-2661.44 -117.99,-138.28 -239.57,-273.32 -364.74,-405.14 -73.73,-78.44 -156.19,-154.76 -219.29,-242.1 -168.04,-232.6 -300.33,-520.01 -469.14,-764.43 -645.56,-946.03 -1333.27,-1860.38 -2063.11,-2743.03 -135.88,-177.73 -288.5,-346.38 -434.06,-516.34 107.54,180.19 254.52,344.94 385.08,509.04 173.8,219.67 344.55,441.68 512.24,666.02 635.65,851.68 1252.17,1727.71 1793.64,2642.49 -286.3,-234.61 -661.31,-445.72 -974.36,-648.69 -114.66,-74.33 -251.27,-147.73 -349.61,-242.63 -99.28,-95.84 -287.44,-440.62 -375.21,-574.37 -303.37,-462.34 -622.32,-913.84 -926.96,-1375.17 -141.78,-214.71 -296.54,-511.44 -452.6,-705.47 56.03,153.97 162.04,307.84 244.82,449.27 239.62,409.35 496.07,806.45 748.75,1207.76 183.12,290.82 344.01,595.72 530.17,884.25 -154.1,-70.85 -301.96,-160.11 -451.41,-240.62 -219.37,-116.48 -439.45,-231.6 -660.25,-345.35 0,0 -1112.91,-2040.6 -1112.91,-2040.6 -27.2,-50.05 -80.37,-132.44 -84.23,-189.47 -5.32,-78.65 105,-307.02 132.2,-399.3 332.23,-171.78 659.1,-353.21 980.63,-544.29zm1875.26 4511.03c135.03,107.7 301.12,195.06 446.01,290.85 332.81,220.04 663.95,459.51 950.1,738.73 -2017.36,1452.73 -4528.44,2121.19 -7003.37,2000.55 -242.39,-11.38 -1198.95,-69.39 -1366.7,-142.47 0.35,-75.47 80.93,-187.14 118.23,-254.6 228.27,-412.98 477.71,-818.7 784.39,-1178.52 139.58,3.44 279.45,19.1 419.16,24.87 265.09,10.93 534.31,11.32 799.47,3.36 53.51,-1.15 107.01,-2.75 160.5,-4.82 53.49,-2.06 106.97,-4.58 160.42,-7.56 53.44,-2.98 106.86,-6.42 160.24,-10.32 53.38,-3.9 106.74,-8.26 160.06,-13.07 53.31,-4.83 106.58,-10.12 159.78,-15.85 53.23,-5.73 106.4,-11.92 159.5,-18.57 53.12,-6.65 106.19,-13.76 159.18,-21.33 52.98,-7.55 105.9,-15.57 158.76,-24.05 52.85,-8.47 105.64,-17.39 158.33,-26.78 52.7,-9.38 105.32,-19.21 157.86,-29.5 52.53,-10.28 104.98,-21.01 157.32,-32.2 52.35,-11.2 104.6,-22.84 156.75,-34.92 52.13,-12.08 104.17,-24.62 156.11,-37.6 51.92,-12.98 103.74,-26.41 155.45,-40.3 51.69,-13.86 103.27,-28.17 154.74,-42.94 51.44,-14.76 102.77,-29.97 153.96,-45.61 51.18,-15.65 102.24,-31.73 153.15,-48.26 50.91,-16.51 101.7,-33.47 152.33,-50.87 50.61,-17.39 101.08,-35.22 151.4,-53.46 50.31,-18.28 100.48,-36.97 150.47,-56.09 50,-19.12 99.83,-38.67 149.47,-58.64 49.66,-19.99 99.16,-40.41 148.47,-61.24 49.32,-20.83 98.44,-42.09 147.39,-63.76 48.95,-21.68 97.7,-43.78 146.27,-66.29 48.56,-22.51 96.92,-45.44 145.09,-68.79 48.17,-23.35 96.13,-47.12 143.9,-71.29 47.77,-24.17 95.32,-48.75 142.68,-73.73 47.34,-24.99 94.45,-50.38 141.36,-76.19 46.9,-25.81 93.57,-52.01 140.03,-78.62 46.44,-26.6 92.66,-53.6 138.66,-81.01 45.98,-27.39 91.72,-55.17 137.23,-83.36 45.52,-28.2 90.78,-56.78 135.8,-85.74zm6153.22 -8385.33c0,0 9.86,11.72 9.86,11.72 48.13,386.36 -25.26,1118.07 -70.1,1517.5 -7.43,68.15 -15.49,136.23 -24.18,204.24 -8.7,67.99 -18.02,135.9 -27.97,203.73 -9.95,67.83 -20.53,135.57 -31.75,203.18 -11.22,67.64 -23.07,135.17 -35.56,202.58 -12.47,67.4 -25.57,134.69 -39.29,201.85 -13.72,67.18 -28.07,134.22 -43.05,201.12 -14.97,66.89 -30.58,133.65 -46.8,200.24 -16.21,66.61 -33.05,133.08 -50.5,199.37 -17.45,66.3 -35.52,132.43 -54.21,198.39 -18.68,65.96 -37.97,131.75 -57.88,197.34 -19.91,65.59 -40.42,131 -61.53,196.22 -21.13,65.22 -42.87,130.24 -65.21,195.05 -22.33,64.82 -45.27,129.42 -68.81,193.79 -23.53,64.39 -47.66,128.56 -72.4,192.49 -24.73,63.93 -50.04,127.64 -75.95,191.12 -25.93,63.45 -52.43,126.68 -79.53,189.66 -27.11,62.96 -54.78,125.68 -83.04,188.15 -28.28,62.45 -57.11,124.64 -86.54,186.56 -29.42,61.9 -59.4,123.55 -89.97,184.93 -30.57,61.35 -61.7,122.43 -93.41,183.2 -31.7,60.77 -63.96,121.27 -96.81,181.46 -32.82,60.17 -66.2,120.05 -100.16,179.6 -33.94,59.56 -68.43,118.81 -103.49,177.73 -35.05,58.9 -70.64,117.49 -106.78,175.74 -36.14,58.25 -72.81,116.18 -110.03,173.76 -37.22,57.56 -74.95,114.79 -113.23,171.64 -38.29,56.88 -77.1,113.4 -116.43,169.56 -39.34,56.13 -79.18,111.9 -119.56,167.3 -40.37,55.41 -81.25,110.44 -122.65,165.08 -41.4,54.65 -83.3,108.92 -125.72,162.78 -42.4,53.86 -85.3,107.33 -128.71,160.39 -43.41,53.07 -87.29,105.73 -131.67,157.97 -357.36,425.59 -755.84,858.43 -1190.53,1205.5 -98.39,-179.13 -219.77,-350.29 -330.49,-522.31 -173.31,-281.2 -389.22,-534.02 -568.27,-811.75 1403.98,-1377.41 2299.29,-2762.02 2839.46,-4668.34 99,-349.37 166.32,-706.26 247.01,-1059.97 324.72,-320.8 652.53,-640.18 973.33,-964.83 218.18,-220.8 428.53,-448.71 652.53,-663.77zm-13369.68 -11515.3c29.47,-2.51 36.91,-4.03 63.38,8.13 -44.31,140.64 -143.71,287.38 -212.83,418.62 -168.5,319.81 -342.29,641.48 -542.92,942.41 -263.13,394.67 -554.3,769.7 -808.54,1171.14 -376.94,595.12 -679.33,1229.19 -960.89,1873.59 -83.55,-138.16 -170.67,-272.49 -274.51,-396.39 -363.31,954.25 -663.1,1988.49 -570.59,3020.44 139.58,1556.73 1290.22,1731.65 2332.38,2514.51 492,369.56 869.49,807.4 1334.23,1196.56 -178.48,0.67 -356.46,10.49 -533.93,29.45 -177.48,18.94 -353.51,46.94 -528.11,83.97 -329.17,57.22 -1020.56,233.34 -1244.31,462.15 2.96,-115.06 3.65,-229.35 -10.56,-343.8 -91.9,-740.64 -669.72,-1303.81 -1335.63,-1573.58 -253.31,-102.62 -568.8,-166.96 -783.49,-341.49 -186.64,-151.72 -231.88,-390.35 -253.73,-617.77 -57.91,-602.85 160.32,-1478.84 307.76,-2074.18 157.96,-637.95 303.55,-1275.26 503.24,-1902.27 359.24,-1127.96 1015,-2416.14 1769.14,-3331.55 452.81,-549.62 1009.55,-1067.8 1749.91,-1139.95zm1904.02 516.26c138.52,-5.37 277.07,-6.54 415.67,-3.52 642.84,14.15 1289.26,59.54 1923.04,171.26 69.1,12.19 138.07,25.04 206.91,38.57 68.83,13.53 137.55,27.72 206.12,42.59 68.57,14.86 136.99,30.39 205.24,46.59 68.27,16.19 136.38,33.05 204.32,50.56 67.93,17.52 135.7,35.7 203.28,54.53 67.58,18.84 134.98,38.33 202.18,58.48 67.21,20.15 134.22,40.95 201.01,62.4 66.8,21.45 133.4,43.55 199.77,66.3 66.36,22.75 132.51,46.14 198.41,70.15 65.91,24.04 131.59,48.72 197.02,74.02 65.43,25.33 130.62,51.28 195.56,77.86 64.92,26.58 129.59,53.78 194,81.61 64.39,27.85 128.51,56.32 192.36,85.4 63.84,29.09 127.4,58.79 190.66,89.13 63.28,30.32 126.26,61.25 188.92,92.81 62.66,31.55 125.02,63.71 187.07,96.48 62.02,32.75 123.74,66.11 185.13,100.08 61.39,33.97 122.45,68.53 183.15,103.68 60.72,35.16 121.1,70.88 181.12,107.2 60.03,36.34 119.7,73.24 178.99,110.74 59.31,37.49 118.25,75.54 176.8,114.19 58.57,38.63 116.76,77.82 174.56,117.6 57.81,39.77 115.22,80.09 172.22,120.98 57.02,40.89 113.64,82.31 169.84,124.29 56.21,42 112.02,84.53 167.41,127.6 55.38,43.07 110.34,86.68 164.87,130.83 54.53,44.15 108.64,88.81 162.3,134 53.65,45.19 106.87,90.9 159.66,137.15 52.76,46.23 105.09,92.96 156.95,140.22 51.87,47.24 103.28,94.97 154.21,143.23 50.93,48.26 101.4,97 151.38,146.23 49.99,49.23 99.5,98.93 148.51,149.12 -227.36,100.35 -476.49,167.39 -711.63,249.69 -335.25,117.36 -666.18,246.74 -1001.64,363.84 -151.3,-139.94 -308.17,-273.36 -470.56,-400.28 -320.68,-239.74 -653.97,-460.44 -999.87,-662.1 -52.13,-29.31 -104.54,-58.13 -157.22,-86.45 -52.7,-28.31 -105.66,-56.12 -158.86,-83.44 -53.21,-27.31 -106.68,-54.1 -160.4,-80.4 -53.72,-26.3 -107.69,-52.08 -161.91,-77.36 -54.21,-25.27 -108.66,-50.02 -163.33,-74.25 -54.69,-24.24 -109.61,-47.95 -164.74,-71.14 -55.13,-23.21 -110.48,-45.89 -166.03,-68.01 -55.57,-22.14 -111.34,-43.76 -167.3,-64.84 -55.98,-21.08 -112.16,-41.63 -168.52,-61.64 -56.36,-20.02 -112.92,-39.5 -169.66,-58.44 -56.72,-18.94 -113.63,-37.34 -170.71,-55.18 -57.09,-17.87 -114.35,-35.19 -171.75,-51.95 -57.41,-16.78 -114.98,-33.01 -172.7,-48.69 -57.72,-15.68 -115.6,-30.81 -173.6,-45.4 -58,-14.57 -116.15,-28.59 -174.42,-42.07 -58.27,-13.48 -116.68,-26.4 -175.21,-38.79 -58.52,-12.36 -117.15,-24.17 -175.88,-35.42 -58.74,-11.26 -117.61,-21.95 -176.56,-32.07 -58.94,-10.14 -117.99,-19.72 -177.12,-28.74 -59.12,-9.01 -118.33,-17.46 -177.62,-25.34 -59.29,-7.89 -118.66,-15.21 -178.07,-21.96 -59.43,-6.78 -118.93,-12.98 -178.47,-18.6 -59.56,-5.63 -119.17,-10.69 -178.81,-15.19 -59.63,-4.5 -119.31,-8.43 -179.03,-11.8 -59.71,-3.37 -119.46,-6.17 -179.23,-8.39 -59.77,-2.22 -119.57,-3.88 -179.37,-4.97 -59.8,-1.1 -119.62,-1.63 -179.42,-1.59 -59.82,0.05 -119.63,0.66 -179.42,1.83 -59.8,1.18 -119.6,2.93 -179.37,5.26 -59.77,2.31 -119.52,5.2 -179.23,8.65 -59.7,3.44 -119.38,7.46 -179.03,12.04 -59.62,4.59 -119.22,9.74 -178.75,15.45 -572.85,57.38 -1135.95,177.2 -1690.79,328.14 245.07,-677.8 -3.28,-1101.7 152.75,-1694.69 654.96,-192.55 1376.36,-238.94 2054.87,-278.06zm-6472.83 10427.52c64.66,74.65 114.59,174.13 164.29,259.84 248.2,428.09 463.74,897.91 558.53,1385.33 42.15,216.78 44.34,433.61 60.45,652.84 70.39,-275.72 103.54,-509.38 60.76,-794.52 235.86,509.38 327.84,714.23 295.14,1284.85 92.33,-301.31 131.28,-556.23 56.9,-866.42 0,0 13.81,19.89 13.81,19.89 271.33,399.19 329.3,695.47 238.95,1158.47 202.81,-368.68 144.7,-521.45 52.51,-901.98 272.02,561.46 349.4,753.03 280.35,1383.28 103.26,-252.48 118.92,-501.75 92.41,-770.25 82.09,150.18 163.6,300.93 231.7,458.16 199.61,460.88 340.6,941.23 563.03,1394.26 416.76,848.75 1116.14,1660.31 1698.06,2408.85 159.31,-99.98 328.55,-187.78 492.34,-280.59 349.47,-199.56 701.1,-395.27 1054.86,-587.13 346.54,-190.06 684.99,-394.74 1026.93,-592.9 251.28,-145.59 527.51,-273.36 762.11,-443.56 61.08,-44.32 100.03,-86.24 139.8,-150.45 38.81,167.81 106.27,285.54 206.35,423.91 -325.38,264.89 -893.12,518.5 -1273.39,734.94 -144.85,82.46 -283.05,176.06 -427.31,259.47 -254.5,147.15 -518.77,280.17 -775.15,424.67 -329.83,185.93 -652.92,383.45 -985.82,563.95 71.14,146.52 157.54,286.99 232.34,432.05 124.95,242.34 236.65,490.25 346.32,739.79 -268.92,-349.95 -559.27,-680.04 -845.81,-1015.35 -248.7,127.81 -484.79,281.76 -728.77,418.64 0,0 -2485.2,1426.47 -2485.2,1426.47 0,0 -1211.4,674.93 -1211.4,674.93 -198.63,110.69 -446.33,219.11 -617.32,366.49 -216.04,186.17 -183.15,862.11 -421.89,1119.47 -121.41,130.88 -424.67,278.82 -589.28,378.45 175.77,-417.13 357.23,-844.22 569.59,-1243.91 0,0 -344.32,193.02 -344.32,193.02 -67.69,142.33 -131.48,286.4 -191.36,432.21 -74.2,184.84 -161.24,565.09 -287.01,697.08 -135.27,141.96 -442.13,290.43 -620.79,384.21 189.72,-427.45 412.08,-832.64 625.84,-1247.7 -145.67,87.36 -293.97,170.51 -439.86,257.57 -77.4,160.35 -149.28,321.1 -208.28,489.22 -114.77,409.88 -128.92,559.24 -526.76,780.65 -101.96,56.77 -204.24,111.09 -298.93,179.79 0,0 -18.41,13.5 -18.41,13.5 212.97,-416.68 438.8,-845.05 694.59,-1236.62 -137.39,56.48 -325.17,135.3 -435.94,235.75 -142.63,129.38 -337.39,771.61 -471.33,991.54 -177.97,292.22 -485.62,403.39 -801.88,480.43 129.53,-151.61 272.97,-305.41 374.78,-477.39 170.74,-288.47 281.56,-593.11 500.41,-853.62 -108.58,57.14 -217.47,120.99 -338.98,145.52 -145.99,29.44 -278.12,-9.32 -401.06,-88.47 224.2,-116.62 417.72,-267.84 624.61,-411.15 -137.26,-6.09 -275.77,-14.34 -413.11,-9.79 -145.18,4.82 -289.69,23.47 -434.94,27.54 -455.5,12.81 -592.46,-49.02 -1042.51,131.23 45.37,-46.85 93.37,-90.79 144.04,-131.84 119.13,-96.93 255.83,-173.67 394.57,-238.68 592.74,-277.71 1012.26,-44.32 1607.33,11.4 0,0 20.11,1.77 20.11,1.77 176.77,-87.03 345.72,-187.99 515.99,-286.91 -252.47,-1.32 -504.88,-6.11 -757.21,-14.36 -262.99,-11.09 -551.93,-50.95 -811.62,-2.41 172.12,-105.43 347.69,-211.81 530.8,-297.13 414.16,-192.94 878.67,32.92 1276.69,175.8 162.94,-74.6 323.27,-180.03 477.53,-272.54 -201.2,-24.72 -403.61,-39.48 -604.73,-65.87 -271.54,-35.67 -535.41,-82.86 -809.15,-107.42 146.47,-88.2 298.66,-190.79 460.91,-246.65 315.86,-108.68 606.44,51.01 904.1,138.34 73.07,21.84 147.23,39.03 222.47,51.56 75.22,12.54 150.93,20.35 227.15,23.42 165.53,-83.71 324.74,-186.3 484.5,-280.83 -509.93,-14.76 -1016.13,-93.2 -1525.99,-120.98 42.19,-27.54 84.57,-54.74 127.15,-81.64 159.89,-100.83 343,-218.85 531.23,-256.57 249.53,-50.02 951.58,174.85 1237.94,239.91 427.55,-249.79 869.36,-480.3 1302.15,-721.4 1240.15,-683.7 2473.17,-1380.04 3699.06,-2089.02 -80.48,-117.78 -186.28,-225.82 -282.55,-331.09 -483.02,-527.93 -1048.09,-936.01 -1685.36,-1258.12 -343.39,-173.55 -709.91,-324.7 -1026.69,-545.46 -587.92,-409.75 -871.61,-1085 -879.39,-1790.21 -4.41,-401.06 53.6,-801.07 61.22,-1202.01 7.67,-405.83 -36.27,-827.03 -108.52,-1225.85 101.53,180.53 176.48,377.73 235.85,575.91 19.98,66.69 22.89,159.55 54.92,217.92 1.99,3.62 4.6,6.85 6.91,10.26 0,0 -31.99,16.62 -31.99,16.62 0,0 32.17,2.43 32.17,2.43 0,0 -2.14,-1.22 -2.14,-1.22 0,0 7.59,-10.34 7.59,-10.34 -29.74,-598.51 -230.3,-1160.74 -418.03,-1723.22zm1393.05 4230.68c113.71,81.91 288.26,326.12 381.47,443.43 4.39,136.17 3.36,273.12 4.97,409.4 -50.02,-23.81 -97.44,-49.21 -139.08,-86.32 -216.89,-193.29 -225.7,-499.06 -247.36,-766.5zm800.55 -13711.2c0,0 6.62,4.5 6.62,4.5 0,0 1.66,21.04 1.66,21.04 -325.28,504.82 -621.26,1026.28 -887.93,1564.34 -91.34,190.32 -178.21,382.67 -260.61,577.05 -59.52,139.45 -114.66,335.12 -207.78,453.42 -95.64,121.46 -303.32,248.81 -428.35,355.27 -251.06,212.14 -489.3,437.82 -714.73,677.03 -54.7,58.76 -108.68,118.19 -161.9,178.28 -53.24,60.1 -105.75,120.85 -157.49,182.22 -51.74,61.39 -102.73,123.41 -152.96,186.04 -50.23,62.64 -99.68,125.89 -148.33,189.74 -48.68,63.86 -96.56,128.31 -143.63,193.34 -47.1,65.02 -93.37,130.63 -138.85,196.8 -45.47,66.17 -90.12,132.9 -133.97,200.16 -43.83,67.27 -86.83,135.07 -129,203.39 -42.16,68.31 -83.47,137.15 -123.95,206.49 -40.48,69.33 -80.1,139.16 -118.87,209.48 -38.75,70.32 -76.63,141.1 -113.65,212.33 -37.03,71.25 -73.16,142.96 -108.42,215.09 -35.26,72.13 -69.61,144.69 -103.07,217.65 -33.48,72.98 -66.05,146.37 -97.73,220.14 -31.66,73.79 -62.4,147.96 -92.25,222.5 -29.84,74.53 -58.76,149.41 -86.77,224.66 -28.01,75.24 -55.08,150.81 -81.22,226.73 -26.16,75.92 -51.36,152.15 -75.63,228.68 -24.27,76.53 -47.6,153.35 -69.98,230.46 -22.38,77.09 -43.82,154.46 -64.31,232.1 -20.48,77.64 -40,155.51 -58.56,233.64 -18.56,78.09 -36.16,156.41 -52.8,234.98 -16.64,78.53 -32.31,157.26 -47.02,236.2 -14.71,78.94 -28.45,158.04 -41.22,237.31 -12.76,79.26 -24.54,158.67 -35.35,238.24 -10.81,79.56 -20.65,159.23 -29.5,239.03 -8.86,79.8 -16.72,159.7 -23.6,239.69 -6.9,80 -12.8,160.06 -17.7,240.2 -4.92,80.14 -8.86,160.32 -11.8,240.56 -2.95,80.23 -4.92,160.49 -5.9,240.78 -0.97,80.28 -0.96,160.56 0.05,240.86 0.99,80.28 2.97,160.53 5.95,240.77 65.95,2277.73 1070.82,4554.93 2626.01,6207.11 252.81,268.52 524.12,530.41 804.92,769.48 180.45,153.65 376.25,292.63 548.52,455.17 -507.61,286.83 -1012.92,577.66 -1515.94,872.48 -312.23,-281.54 -627.98,-573.77 -916.16,-879.86 -98.03,-105.31 -194.07,-212.42 -288.13,-321.31 -94.04,-108.87 -186.02,-219.47 -275.95,-331.78 -89.95,-112.3 -177.76,-226.24 -263.44,-341.82 -85.7,-115.57 -169.22,-232.7 -250.56,-351.37 -81.34,-118.69 -160.45,-238.83 -237.34,-360.43 -76.86,-121.63 -151.44,-244.64 -223.76,-369.03 -72.29,-124.4 -142.26,-250.08 -209.88,-377.07 -67.62,-127.01 -132.86,-255.21 -195.72,-384.64 -41.18,-84.46 -81.31,-169.41 -120.4,-254.84 -39.09,-85.45 -77.1,-171.37 -114.08,-257.76 -36.97,-86.38 -72.86,-173.21 -107.7,-260.47 -34.84,-87.27 -68.58,-174.96 -101.24,-263.08 -32.67,-88.09 -64.23,-176.58 -94.71,-265.45 -30.5,-88.89 -59.89,-178.13 -88.18,-267.73 -28.28,-89.61 -55.44,-179.55 -81.51,-269.82 -26.07,-90.28 -51.02,-180.86 -74.87,-271.75 -23.83,-90.88 -46.54,-182.04 -68.12,-273.49 -21.59,-91.45 -42.05,-183.15 -61.37,-275.11 -19.32,-91.96 -37.52,-184.14 -54.56,-276.54 -17.06,-92.4 -32.97,-185 -47.74,-277.78 -14.77,-92.81 -28.4,-185.77 -40.88,-278.9 -12.48,-93.12 -23.81,-186.39 -34,-279.82 -10.18,-93.4 -19.21,-186.92 -27.08,-280.56 -7.88,-93.63 -14.6,-187.35 -20.16,-281.14 -5.57,-93.79 -9.98,-187.64 -13.23,-281.54 -3.25,-93.92 -5.34,-187.85 -6.27,-281.8 -0.94,-93.96 -0.72,-187.92 0.66,-281.89 1.38,-93.95 3.93,-187.87 7.62,-281.75 3.7,-93.88 8.55,-187.71 14.56,-281.49 6.01,-93.77 13.18,-187.45 21.5,-281.03 8.32,-93.6 17.79,-187.09 28.42,-280.46 10.62,-93.35 22.39,-186.56 35.32,-279.63 12.92,-93.07 26.99,-185.97 42.2,-278.68 15.21,-92.74 31.57,-185.26 49.06,-277.57 17.5,-92.32 36.13,-184.41 55.88,-276.28 19.77,-91.85 40.66,-183.45 62.67,-274.79 22.03,-91.36 45.18,-182.43 69.44,-273.21 24.25,-90.76 49.63,-181.22 76.14,-271.38 26.49,-90.14 54.09,-179.95 82.8,-269.42 28.72,-89.47 58.52,-178.57 89.42,-267.3 24.06,-70.07 48.83,-139.9 74.29,-209.45 25.47,-69.58 51.63,-138.89 78.52,-207.92 26.88,-69.05 54.45,-137.81 82.72,-206.28 28.28,-68.48 57.24,-136.67 86.91,-204.55 29.65,-67.88 59.99,-135.47 91.03,-202.73 31.04,-67.27 62.75,-134.22 95.13,-200.85 32.41,-66.63 65.47,-132.93 99.21,-198.87 33.74,-65.96 68.15,-131.58 103.23,-196.83 35.07,-65.25 70.8,-130.15 107.2,-194.66 36.39,-64.53 73.42,-128.69 111.12,-192.47 37.71,-63.77 76.05,-127.16 115.03,-190.16 38.98,-62.99 78.6,-125.59 118.87,-187.78 40.25,-62.2 81.12,-123.99 122.65,-185.35 41.5,-61.35 83.62,-122.29 126.38,-182.8 42.75,-60.49 86.11,-120.56 130.08,-180.19 43.98,-59.63 88.54,-118.81 133.71,-177.52 45.18,-58.71 90.94,-116.97 137.31,-174.76 46.36,-57.79 93.28,-115.11 140.8,-171.93 47.54,-56.84 95.63,-113.2 144.3,-169.05 48.66,-55.85 97.88,-111.21 147.68,-166.06 49.78,-54.87 100.13,-109.22 151.03,-163.04 50.88,-53.84 102.31,-107.17 154.28,-159.95 51.97,-52.78 104.49,-105.05 157.54,-156.77 53.03,-51.71 106.59,-102.89 160.66,-153.52 54.07,-50.63 108.67,-100.72 163.76,-150.24 55.09,-49.52 110.69,-98.48 166.77,-146.88 56.1,-48.4 112.69,-96.22 169.74,-143.48 57.07,-47.25 114.62,-93.91 172.62,-140 58.01,-46.08 116.48,-91.56 175.4,-136.47 58.94,-44.89 118.34,-89.17 178.18,-132.86 59.82,-43.67 120.09,-86.74 180.79,-129.21 60.72,-42.46 121.87,-84.29 183.42,-125.51 565.3,-374.32 1158.89,-673.32 1768,-967.38zm14785.11 2108.31c410.89,-50.66 1008.05,24.42 1363.9,245.06 -293.53,146.78 -588.38,288.69 -897.72,399.22 -428.22,153.02 -867.48,250.98 -1309.67,353.21 0,0 -1097.17,261.32 -1097.17,261.32 -1287.25,317.21 -2719.32,731.85 -3921.04,1289.45 -375.62,176.92 -741.44,372.17 -1097.49,585.75 -640.47,377.58 -1304.37,840.84 -1709.83,1477.76 -345.74,543.16 -415.75,1149.9 -531.82,1765.84 -123.25,654.16 -522.79,1592.74 -967.32,2089.34 -126.62,141.43 -268.89,229.18 -411.73,348.41 0.16,19.18 -3.23,16.7 8.63,30.93 89.71,107.68 492.65,215.51 641.81,239.96 304.92,49.92 515.83,-15.67 764.64,-195.35 482.63,-348.6 1094.82,-1048.54 1192.81,-1645.8 77.3,-71.56 140.22,-142.68 187.81,-237.53 140.27,-279.52 220.21,-884.86 248.59,-1203.97 119.06,-74.6 257.07,-148.81 344.25,-262.01 191.46,-248.71 225.04,-650.44 293.74,-950.73 36.51,-159.48 80.66,-317.69 121.22,-476.2 10.08,-4.87 20.11,-9.93 30.27,-14.66 215.03,-100.83 319.4,-264.4 440.25,-458.93 516.36,-213.46 1039.35,-409.2 1568.98,-587.23 529.63,-178.01 1064.67,-337.89 1605.15,-479.61 0,0 1030.24,-270.88 1030.24,-270.88 272.22,-70.32 547.2,-133.37 809.99,-234.67 -127.07,265.03 -342,478.66 -582.95,641.89 -270.19,183.07 -561.54,303.37 -862.48,423.77 -924.2,369.8 -1892.93,598.06 -2842.15,890.79 -119.19,36.78 -241.49,61.8 -358.37,106.04 30.88,8.7 67.46,-0.67 98.79,-7.07 104.21,-21.35 207.46,-55.47 310.83,-81.27 0,0 724.52,-175.9 724.52,-175.9 598.74,-143.24 1200.93,-274.79 1795.12,-436.39 -508.35,939.67 -1628.74,1209.63 -2596.23,1413.58 -225.99,47.65 -478.63,67.88 -695.23,141.68 0,0 20.06,-3.47 20.06,-3.47 0,0 -0.35,6.67 -0.35,6.67 327.63,-21.41 648.98,-76.38 974.18,-118.1 468.63,-60.16 945.1,-107.57 1404.61,-219.85 -18.52,26.38 -38.89,51.37 -59.33,76.27 -623.14,759.22 -1903.49,1111.61 -2848.56,1205.4 127.99,24.31 272.88,17.3 403.13,18.6 606.63,6.03 1040.6,-54.92 1631.09,-191.49 -63.41,107.26 -162.09,203.42 -255.69,284.37 -425.2,367.81 -974.46,531.71 -1521.34,612.43 -87.48,12.91 -391.09,30.11 -446.91,60.79 82.52,17.78 188.24,8.04 273.18,9.15 500.49,6.41 1031.38,-7.4 1524.38,-97.46 -25.79,45.99 -50.18,88.1 -87.3,126.33 -502.26,517.4 -1352.49,497.63 -2017.8,506.79 468.95,85.5 971.39,83.2 1446.19,59.2 105.24,-6.06 210.56,-9.61 313.95,-31.59 -67.8,85.82 -135,158.15 -223.5,222.97 -372.23,272.67 -1143.54,371.59 -1591.28,290.4 -4.63,-0.84 -9.18,-2.06 -13.79,-3.07 -3.59,2.75 -7.11,5.64 -10.82,8.31 -0.95,0.69 -2.03,1.14 -3.07,1.72 415.02,115.48 965.55,133.87 1393.66,97.94 -47.3,59.92 -98.31,110.69 -157.72,158.54 -441.74,355.72 -1133.6,208.05 -1653.9,151.56 439.48,133.95 879.7,274.14 1343.33,279.35 -70.44,94.15 -161.27,167.49 -265.66,220.85 -472.21,241.36 -1129.5,42.31 -1598.74,-113.2 366.32,218.73 934.44,368.36 1356.56,390.38 -45.51,32.3 -91.11,64.39 -141.01,89.68 -532.11,269.66 -1189.13,15.21 -1713.49,-155.74 364,245.86 1034.64,442.9 1469.06,511.97 -466.52,260.51 -949.62,193.58 -1438.18,31.04 -156.88,-52.2 -312.44,-121.41 -473.5,-158.73 -5.29,-1.25 -10.61,-2.33 -15.93,-3.5 423.88,213.19 843.51,414.75 1325.25,441.77 -88.26,78.25 -192.84,137.36 -302.95,179.07 -388.05,147.05 -931.61,61.9 -1314.95,-60.74 -187.54,-59.99 -364.9,-141.8 -543.63,-223.5 7.67,7.17 15.37,14.29 23.39,21.06 388.71,328.8 1026.93,440.76 1520.86,407.34 274.23,347.55 612.58,659.2 913.01,986.11 98.68,107.39 207.04,213.53 290.8,333.08 -245.7,175.11 -520.73,321.12 -787.8,460.64 -29.74,-31.67 -61.03,-62.32 -98.68,-84.63 -183.52,-108.73 -371.91,5.56 -553.47,55.95 -67.17,110.54 -166.32,194.16 -286.7,243.08 -184,74.76 -425.54,59.89 -622.56,59.44 -1025.9,-2.25 -2097.09,-271.75 -2957.82,-842.21 -144.95,-96.06 -289.79,-199.92 -423.08,-311.46 -180.51,-151.03 -375.64,-390.88 -595.49,-480.43 -73.33,-29.88 -138.05,-10.19 -206.81,23.01 -327.39,158.15 -492.12,592.16 -607.29,911.09 -30.64,-114.98 -76.64,-228.93 -116.01,-341.31 -67.01,-191.25 -131.99,-383.74 -217.31,-567.84 -152.67,-329.41 -452.33,-782.38 -704.88,-1044.71 245.38,-558.74 688.48,-1058.04 1141.05,-1458.31 933.26,-825.47 1993.49,-814.73 3153.49,-744.67 -351.56,393.53 -792.03,765.97 -1248.28,1030.77 -177.83,103.23 -365.67,185.69 -548.74,278.84 1483.53,-249.13 2314.64,-1144.1 2893.09,-2482.47 122.6,-283.65 222.94,-575.7 327.58,-866.31 121.96,-338.74 268.65,-863.51 495.91,-1132.47 209.02,-247.35 508.53,-451.41 767.32,-644.29 1092.93,-814.73 2325.18,-1430.04 3573.89,-1965.76 1026.17,-440.28 2062.96,-823.36 3140.44,-1118.26 617.3,-168.94 1214.61,-321.81 1854.54,-372.15z"/>
</svg>
